{"title":"The Woods - Il Mistero Del Bosco (2006).BRrip.XviD - Italian Eng","uid":12209727,"size":1214437028,"categoryP":"video","categoryS":"movies","magnet":"?xt=urn:btih:54460305e8f89e8446f4d81427359315690c8d27&amp;dn=The+Woods+-+Il+Mistero+Del+Bosco+%282006%29.BRrip.XviD+-+Italian+Eng&amp;tr=udp%3A%2F%2Ftracker.openbittorrent.com%3A80&amp;tr=udp%3A%2F%2Fopen.demonii.com%3A1337&amp;tr=udp%3A%2F%2Ftracker.coppersurfer.tk%3A6969&amp;tr=udp%3A%2F%2Fexodus.desync.com%3A6969","seeders":1,"leechers":0,"uploader":"robbyrs4","files":4,"time":1439060678,"description":"The Woods - Il Mistero Del Bosco (2006).BRrip.XviD - Italian English.Ac3.Sub.ita.eng.MIRCrew\n\n[center]\n\n[color=red][b][img]http://s19.postimg.org/w9ws99nmb/banner_mircrew_original_2.png[/img]\n\n[u]NO FOUND ONLY ORIGINAL RELEASE[/u]\n\nIl Mistero Del Bosco - The Woods (2006)\n\n[url=http://postimg.org/image/ipveus7n5/][img]http://s24.postimg.org/ipveus7n5/image.jpg[/img][/url]\n\n\n[URL=http://www.imdb.com/title/tt0380066/][IMG]http://www.userlogos.org/files/logos/Sucka/imdb_new.png[/IMG][/URL]  \n\n[img]http://s19.postimg.org/vz5tzn42b/1_scheda.png[/img]\n\nTitolo originale \tThe Woods\nLingua originale \tInglese\nPaese di produzione \tStati Uniti d'America\nAnno \t2006\nDurata \t91 min\nRapporto \t2,35:1\nGenere \tHorror, Thriller\nRegia \tLucky McKee\nSoggetto \tDavid Ross\nSceneggiatura \tDavid Ross\nProduttore \tBryan Furst\nSean Furst\nCasa di produzione \tUnited Artists\nFotografia \tJohn R. Leonetti\nMusiche \tJohn Frizzell\nJaye Barnes Luckett\nScenografia \tDan Leigh\n\n[img]http://s19.postimg.org/q8fnlww2b/1_cast.png[/img]\n\nAgnes Bruckner: Heather Fasulo\nPatricia Clarkson: Sig.ra Traverse\nLauren Birkell: Marcy Turner\nRachel Nichols: Samantha Wise\nBruce Campbell: Joe Fasulo\nEmma Campbell: Alice Fasulo\nJane Gilchrist: Sig.ra Coss\nCatherine Colvey: Sig.ra Leland\nMarcia Bennett: Sig.ra Mackinaw\nCary Lawrence: Sig.ra Charevoix\nColleen Williams: Sig.ra Arbor\nKathleen Mackey: Ann Whales\nGordon Currie: sceriffo\n   \n[img]http://s19.postimg.org/okgi79i6r/1_trama.png[/img]\n\nÃˆ il 1965 e l'adolescente Heather Fasulo viene spedita dai genitori in un prestigioso collegio femminile sperduto nel mezzo di una foresta, la &quot;Falburn Academy&quot;.Durante la permanenza di Heather nell'istituto, alcune ragazze che si erano avventurate nel bosco iniziano a sparire misteriosamente.\n\n[img]http://s19.postimg.org/fzn6g380j/1_story.png[/img]\n\nSet in 1965 New England, a troubled girl encounters mysterious happenings in the woods surrounding an isolated girls school that she was sent to by her estranged parents........\n &lt;a href=&quot;\nhttp://extraimago.com/images/2015/08/08/vlcsnap-2015-08-08-18h47m19s124.png[/img]&quot; rel=&quot;nofollow&quot; target=&quot;_NEW&quot;&gt;\nhttp://extraimago.com/images/2015/08/08/vlcsnap-2015-08-08-18h47m19s124.png[/img]&lt;/a&gt; &lt;a href=&quot;\nhttp://extraimago.com/images/2015/08/08/vlcsnap-2015-08-08-18h47m58s20.png[/img]&quot; rel=&quot;nofollow&quot; target=&quot;_NEW&quot;&gt;\nhttp://extraimago.com/images/2015/08/08/vlcsnap-2015-08-08-18h47m58s20.png[/img]&lt;/a&gt;\n\n[IMG]http://img153.imageshack.us/img153/3158/restateinseedblood.gif[/img]\n\n\n[img]http://imgur.com/lvhU6.gif[/img]\n\n\n[img]http://s19.postimg.org/a2jaz9qvn/1_dati.png[/img]\n\n\n[spoiler]\nGeneral\nComplete name                            : Il Mistero Del Bosco - The Woods (2006).ita.Eng.sub.ita.eng.MIRCrewIl Mistero Del Bosco - The Woods (2006).ita.Eng.sub.ita.eng.MIRCrew.avi\nFormat                                   : AVI\nFormat/Info                              : Audio Video Interleave\nFile size                                : 1.13 GiB\nDuration                                 : 1h 31mn\nOverall bit rate                         : 1 778 Kbps\nMovie name                               : ENCODED by\nDirector                                 : MIRCrew by robbyrs\nWriting application                      : VirtualDubMod 1.5.10.2 (build 2540/release)\nWriting library                          : VirtualDubMod build 2540/release\n\nVideo\nID                                       : 0\nFormat                                   : MPEG-4 Visual\nFormat profile                           : Simple@L3\nFormat settings, BVOP                    : No\nFormat settings, QPel                    : No\nFormat settings, GMC                     : No warppoints\nFormat settings, Matrix                  : Default (H.263)\nCodec ID                                 : XVID\nCodec ID/Hint                            : XviD\nDuration                                 : 1h 31mn\nBit rate                                 : 1 188 Kbps\nWidth                                    : 688 pixels\nHeight                                   : 294 pixels\nDisplay aspect ratio                     : 2.35:1\nFrame rate                               : 23.976 fps\nColor space                              : YUV\nChroma subsampling                       : 4:2:0\nBit depth                                : 8 bits\nScan type                                : Progressive\nCompression mode                         : Lossy\nBits/(Pixel*Frame)                       : 0.245\nStream size                              : 774 MiB (67%)\nWriting library                          : XviD 64\n\nAudio #1\nID                                       : 1\nFormat                                   : AC-3\nFormat/Info                              : Audio Coding 3\nMode extension                           : CM (complete main)\nCodec ID                                 : 2000\nDuration                                 : 1h 31mn\nBit rate mode                            : Constant\nBit rate                                 : 192 Kbps\nChannel(s)                               : 2 channels\nChannel positions                        : Front: L R\nSampling rate                            : 48.0 KHz\nBit depth                                : 16 bits\nCompression mode                         : Lossy\nStream size                              : 125 MiB (11%)\nAlignment                                : Split accross interleaves\nInterleave, duration                     : 42 ms (1.00 video frame)\nInterleave, preload duration             : 500 ms\n\nAudio #2\nID                                       : 2\nFormat                                   : AC-3\nFormat/Info                              : Audio Coding 3\nMode extension                           : CM (complete main)\nCodec ID                                 : 2000\nDuration                                 : 1h 31mn\nBit rate mode                            : Constant\nBit rate                                 : 384 Kbps\nChannel(s)                               : 6 channels\nChannel positions                        : Front: L C R, Side: L R, LFE\nSampling rate                            : 48.0 KHz\nBit depth                                : 16 bits\nCompression mode                         : Lossy\nStream size                              : 250 MiB (22%)\nAlignment                                : Split accross interleaves\nInterleave, duration                     : 42 ms (1.00 video frame)\nInterleave, preload duration             : 500 ms\n\n\n\n\n[/spoiler]\n\n[/color][/b][/center]","torrent":{"xt":"urn:btih:54460305e8f89e8446f4d81427359315690c8d27","amp;dn":"The+Woods+-+Il+Mistero+Del+Bosco+%282006%29.BRrip.XviD+-+Italian+Eng","amp;tr":["udp%3A%2F%2Ftracker.openbittorrent.com%3A80","udp%3A%2F%2Fopen.demonii.com%3A1337","udp%3A%2F%2Ftracker.coppersurfer.tk%3A6969","udp%3A%2F%2Fexodus.desync.com%3A6969"],"infoHash":"54460305e8f89e8446f4d81427359315690c8d27","infoHashBuffer":{"type":"Buffer","data":[84,70,3,5,232,248,158,132,70,244,216,20,39,53,147,21,105,12,141,39]},"announce":[],"urlList":[]}}